<svg width="43" height="44" viewBox="0 0 43 44" fill="none" xmlns="http://www.w3.org/2000/svg">
<path d="M42.25 21.9999C42.25 33.1994 33.0583 42.2938 21.7006 42.2938C10.343 42.2938 1.15125 33.1994 1.15125 21.9999C1.15125 10.8004 10.343 1.70605 21.7006 1.70605C33.0583 1.70605 42.25 10.8004 42.25 21.9999Z" fill="white" stroke="#1187CF" stroke-width="1.5"/>
<path d="M14.883 17.018C14.5121 17.3844 14.218 17.8194 14.0173 18.2981C13.8166 18.7768 13.7133 19.2899 13.7133 19.8081C13.7133 20.3262 13.8166 20.8393 14.0173 21.318C14.218 21.7968 14.5121 22.2317 14.883 22.5981L21.7006 29.3339L28.5181 22.5981C29.2671 21.8582 29.6878 20.8545 29.6878 19.8081C29.6878 18.7616 29.2671 17.758 28.5181 17.018C27.7692 16.278 26.7534 15.8623 25.6942 15.8623C24.635 15.8623 23.6192 16.278 22.8702 17.018L21.7006 18.1737L20.5309 17.018C20.16 16.6516 19.7198 16.361 19.2352 16.1627C18.7507 15.9644 18.2314 15.8623 17.7069 15.8623C17.1825 15.8623 16.6631 15.9644 16.1786 16.1627C15.6941 16.361 15.2538 16.6516 14.883 17.018V17.018Z" stroke="#1187CF" stroke-width="2" stroke-linecap="round" stroke-linejoin="round"/>
</svg>
