<svg width="43" height="44" viewBox="0 0 43 44" fill="none" xmlns="http://www.w3.org/2000/svg">
<path d="M42.2501 21.9999C42.2501 33.1994 33.0584 42.2938 21.7007 42.2938C10.3431 42.2938 1.15137 33.1994 1.15137 21.9999C1.15137 10.8004 10.3431 1.70605 21.7007 1.70605C33.0584 1.70605 42.2501 10.8004 42.2501 21.9999Z" fill="white" stroke="#D9D9D9" stroke-width="1.5"/>
<path d="M14.8831 17.018C14.5123 17.3844 14.2181 17.8194 14.0174 18.2981C13.8167 18.7768 13.7134 19.2899 13.7134 19.8081C13.7134 20.3262 13.8167 20.8393 14.0174 21.318C14.2181 21.7968 14.5123 22.2317 14.8831 22.5981L21.7007 29.3339L28.5183 22.5981C29.2672 21.8582 29.688 20.8545 29.688 19.8081C29.688 18.7616 29.2672 17.758 28.5183 17.018C27.7693 16.278 26.7535 15.8623 25.6943 15.8623C24.6351 15.8623 23.6193 16.278 22.8704 17.018L21.7007 18.1737L20.531 17.018C20.1601 16.6516 19.7199 16.361 19.2354 16.1627C18.7508 15.9644 18.2315 15.8623 17.707 15.8623C17.1826 15.8623 16.6633 15.9644 16.1787 16.1627C15.6942 16.361 15.2539 16.6516 14.8831 17.018V17.018Z" stroke="#D9D9D9" stroke-width="2" stroke-linecap="round" stroke-linejoin="round"/>
</svg>
