<svg width="43" height="43" viewBox="0 0 43 43" fill="none" xmlns="http://www.w3.org/2000/svg">
<path d="M40 18C40 27.9411 31.9411 36 22 36C12.0589 36 4 27.9411 4 18C4 8.05887 12.0589 0 22 0C31.9411 0 40 8.05887 40 18Z" fill="#1187CF"/>
<path d="M30.7083 15.4583C30.7083 12.984 29.705 10.7445 28.0853 9.12479C26.4639 7.50333 24.2243 6.5 21.75 6.5C19.2757 6.5 17.0361 7.50333 15.4147 9.12479C13.795 10.7445 12.7917 12.984 12.7917 15.4583C12.7917 17.9326 13.795 20.1722 15.4147 21.7919C17.0361 23.4133 19.2757 24.4167 21.75 24.4167C24.2243 24.4167 26.4639 23.4133 28.0853 21.7919C28.9185 20.9612 29.5792 19.974 30.0294 18.8871C30.4795 17.8001 30.7103 16.6348 30.7083 15.4583ZM11 33.375C11 35.1667 15.0312 36.9583 21.75 36.9583C28.0531 36.9583 32.5 35.1667 32.5 33.375C32.5 29.7917 28.2824 26.2083 21.75 26.2083C15.0312 26.2083 11 29.7917 11 33.375Z" fill="white"/>
</svg>
