<svg xmlns="http://www.w3.org/2000/svg" width="214.33685mm" height="107.16669mm" viewBox="0 0 214.33685 107.16669"><g style="stroke-width:.173557"><g style="stroke-width:.173557"><path d="M0 0h-5.757v-31.529l-4.104.877V0h-7.507v-29.058l-3.928.831V0h-9.501v-26.207l-3.078.664V0h-11.758v-23.044l-2.487.527V0h-13.257v-19.705l1.232-.26v-32.758h5.756v31.526l4.105-.867v-30.659h7.496v29.069l3.934-.842v-28.227h9.507v26.208l3.085-.659v-25.549h11.749v23.059l2.486-.541v-22.518H1.232v19.709L0-32.752Z" style="fill:#094e9b;fill-opacity:1;fill-rule:nonzero;stroke:none;stroke-width:.173557" transform="matrix(2.03263 0 0 -2.03263 168.29 0)"/></g><g style="stroke-width:.173557"><path d="M0 0v-44.467h1.996v39.354c1.121-1.176 2.645-2.08 4.404-2.78v-36.574h2.999v35.613a24.31 24.31 0 0 1 1.541-.36l2.998-.657v-34.596h4.269v33.7l1.07-.219V8.256h-6.098C3.793 8.256 0 4.693 0 0" style="fill:#094e9b;fill-opacity:1;fill-rule:nonzero;stroke:none;stroke-width:.173557" transform="matrix(2.03263 0 0 -2.03263 0 16.781)"/></g><g style="stroke-width:.173557"><path d="M0 0v-39.358c-1.119 1.171-2.641 2.077-4.399 2.785V0h-3.002v-35.607c-.508.13-1.016.252-1.529.363l-3.018.641V0h-4.251v-33.699l-1.07.227v-19.251h6.087c9.399 0 13.187 3.573 13.187 8.252V0Z" style="fill:#094e9b;fill-opacity:1;fill-rule:nonzero;stroke:none;stroke-width:.173557" transform="matrix(2.03263 0 0 -2.03263 210.261 0)"/></g></g></svg>