<svg width="32" height="32" viewBox="0 0 32 32" fill="none" xmlns="http://www.w3.org/2000/svg">
<path fill-rule="evenodd" clip-rule="evenodd" d="M14.6753 4C12.9728 4.00015 11.2951 4.40739 9.78213 5.18776C8.26912 5.96814 6.96467 7.09901 5.97762 8.48602C4.99057 9.87304 4.34953 11.476 4.108 13.1611C3.86646 14.8462 4.03143 16.5647 4.58914 18.1731C5.14685 19.7815 6.08113 21.2333 7.31402 22.4072C8.54692 23.5811 10.0427 24.4432 11.6765 24.9215C13.3104 25.3998 15.0349 25.4804 16.7063 25.1567C18.3776 24.833 19.9473 24.1143 21.2844 23.0606L25.8714 27.6474C26.1083 27.8762 26.4256 28.0028 26.7549 28C27.0842 27.9971 27.3992 27.865 27.6321 27.6321C27.865 27.3993 27.9971 27.0843 28 26.7549C28.0028 26.4256 27.8762 26.1084 27.6474 25.8715L23.0604 21.2847C24.3014 19.7105 25.074 17.8187 25.29 15.8259C25.506 13.8331 25.1565 11.8197 24.2816 10.0162C23.4067 8.21274 22.0417 6.69199 20.3428 5.62803C18.6439 4.56406 16.6798 3.99987 14.6753 4ZM6.51113 14.6758C6.51113 12.5106 7.37128 10.4341 8.90235 8.90307C10.4334 7.37206 12.51 6.51194 14.6753 6.51194C16.8405 6.51194 18.9171 7.37206 20.4482 8.90307C21.9792 10.4341 22.8394 12.5106 22.8394 14.6758C22.8394 16.8409 21.9792 18.9174 20.4482 20.4484C18.9171 21.9795 16.8405 22.8396 14.6753 22.8396C12.51 22.8396 10.4334 21.9795 8.90235 20.4484C7.37128 18.9174 6.51113 16.8409 6.51113 14.6758Z" fill="#1187CF"/>
</svg>
