<svg width="116" height="20" viewBox="0 0 116 20" fill="none" xmlns="http://www.w3.org/2000/svg">
<mask id="mask0_125_147" style="mask-type:alpha" maskUnits="userSpaceOnUse" x="0" y="0" width="20" height="20">
<path fill-rule="evenodd" clip-rule="evenodd" d="M13.0583 7.91558C12.3796 7.81694 11.7929 7.39059 11.4895 6.77552L9.99999 3.75582L8.51049 6.77552C8.2071 7.39059 7.62042 7.81694 6.94172 7.91558L3.60826 8.40004L6.02077 10.7521C6.51173 11.2308 6.73572 11.9204 6.61974 12.5962L6.05021 15.915L9.03049 14.3481C9.63744 14.029 10.3625 14.029 10.9695 14.3481L13.9498 15.915L13.3802 12.5962C13.2643 11.9204 13.4883 11.2308 13.9792 10.7521L16.3917 8.40004L13.0583 7.91558ZM19.3535 6.72526C19.7667 6.78665 20.0548 7.1692 19.9911 7.58244C19.9674 7.74774 19.8895 7.89887 19.7714 8.01458L15.4336 12.2438L16.4584 18.2158C16.5292 18.6267 16.253 19.0163 15.8421 19.0872C15.6791 19.1155 15.5091 19.0895 15.3627 19.0116L9.99999 16.1921L4.63727 19.0116C4.51259 19.0774 4.37197 19.107 4.23134 19.097C4.09072 19.0869 3.95571 19.0377 3.84164 18.9549C3.72757 18.872 3.63899 18.7589 3.58596 18.6282C3.53292 18.4976 3.51755 18.3547 3.54158 18.2158L4.56643 12.2438L0.228546 8.01458C0.0849021 7.87456 0.00272316 7.68324 6.64636e-05 7.48266C-0.00259023 7.28208 0.0744927 7.08864 0.214378 6.94487C0.330086 6.8268 0.481215 6.74887 0.646513 6.72526L6.64209 5.8539L9.32227 0.420337C9.50882 0.0472366 9.96221 -0.106254 10.3353 0.0779347C10.4841 0.151138 10.6045 0.271569 10.6777 0.420337L13.3579 5.8539L19.3535 6.72526Z" fill="#006FFD"/>
</mask>
<g mask="url(#mask0_125_147)">
<rect width="20" height="20" fill="#D4D6DD"/>
</g>
<mask id="mask1_125_147" style="mask-type:alpha" maskUnits="userSpaceOnUse" x="24" y="0" width="20" height="20">
<path fill-rule="evenodd" clip-rule="evenodd" d="M37.0583 7.91558C36.3796 7.81694 35.7929 7.39059 35.4895 6.77552L34 3.75582L32.5105 6.77552C32.2071 7.39059 31.6204 7.81694 30.9417 7.91558L27.6083 8.40004L30.0208 10.7521C30.5117 11.2308 30.7357 11.9204 30.6197 12.5962L30.0502 15.915L33.0305 14.3481C33.6374 14.029 34.3625 14.029 34.9695 14.3481L37.9498 15.915L37.3802 12.5962C37.2643 11.9204 37.4883 11.2308 37.9792 10.7521L40.3917 8.40004L37.0583 7.91558ZM43.3535 6.72526C43.7667 6.78665 44.0548 7.1692 43.9911 7.58244C43.9674 7.74774 43.8895 7.89887 43.7714 8.01458L39.4336 12.2438L40.4584 18.2158C40.5292 18.6267 40.253 19.0163 39.8421 19.0872C39.6791 19.1155 39.5091 19.0895 39.3627 19.0116L34 16.1921L28.6373 19.0116C28.5126 19.0774 28.372 19.107 28.2313 19.097C28.0907 19.0869 27.9557 19.0377 27.8416 18.9549C27.7276 18.872 27.639 18.7589 27.586 18.6282C27.5329 18.4976 27.5175 18.3547 27.5416 18.2158L28.5664 12.2438L24.2285 8.01458C24.0849 7.87456 24.0027 7.68324 24.0001 7.48266C23.9974 7.28208 24.0745 7.08864 24.2144 6.94487C24.3301 6.8268 24.4812 6.74887 24.6465 6.72526L30.6421 5.8539L33.3223 0.420337C33.5088 0.0472366 33.9622 -0.106254 34.3353 0.0779347C34.4841 0.151138 34.6045 0.271569 34.6777 0.420337L37.3579 5.8539L43.3535 6.72526Z" fill="#006FFD"/>
</mask>
<g mask="url(#mask1_125_147)">
<rect x="24" width="20" height="20" fill="#D4D6DD"/>
</g>
<mask id="mask2_125_147" style="mask-type:alpha" maskUnits="userSpaceOnUse" x="48" y="0" width="20" height="20">
<path fill-rule="evenodd" clip-rule="evenodd" d="M61.0583 7.91558C60.3796 7.81694 59.7929 7.39059 59.4895 6.77552L58 3.75582L56.5105 6.77552C56.2071 7.39059 55.6204 7.81694 54.9417 7.91558L51.6083 8.40004L54.0208 10.7521C54.5117 11.2308 54.7357 11.9204 54.6197 12.5962L54.0502 15.915L57.0305 14.3481C57.6374 14.029 58.3625 14.029 58.9695 14.3481L61.9498 15.915L61.3802 12.5962C61.2643 11.9204 61.4883 11.2308 61.9792 10.7521L64.3917 8.40004L61.0583 7.91558ZM67.3535 6.72526C67.7667 6.78665 68.0548 7.1692 67.9911 7.58244C67.9674 7.74774 67.8895 7.89887 67.7714 8.01458L63.4336 12.2438L64.4584 18.2158C64.5292 18.6267 64.253 19.0163 63.8421 19.0872C63.6791 19.1155 63.5091 19.0895 63.3627 19.0116L58 16.1921L52.6373 19.0116C52.5126 19.0774 52.372 19.107 52.2313 19.097C52.0907 19.0869 51.9557 19.0377 51.8416 18.9549C51.7276 18.872 51.639 18.7589 51.586 18.6282C51.5329 18.4976 51.5175 18.3547 51.5416 18.2158L52.5664 12.2438L48.2285 8.01458C48.0849 7.87456 48.0027 7.68324 48.0001 7.48266C47.9974 7.28208 48.0745 7.08864 48.2144 6.94487C48.3301 6.8268 48.4812 6.74887 48.6465 6.72526L54.6421 5.8539L57.3223 0.420337C57.5088 0.0472366 57.9622 -0.106254 58.3353 0.0779347C58.4841 0.151138 58.6045 0.271569 58.6777 0.420337L61.3579 5.8539L67.3535 6.72526Z" fill="#006FFD"/>
</mask>
<g mask="url(#mask2_125_147)">
<rect x="48" width="20" height="20" fill="#D4D6DD"/>
</g>
<mask id="mask3_125_147" style="mask-type:alpha" maskUnits="userSpaceOnUse" x="72" y="0" width="20" height="20">
<path fill-rule="evenodd" clip-rule="evenodd" d="M85.0583 7.91558C84.3796 7.81694 83.7929 7.39059 83.4895 6.77552L82 3.75582L80.5105 6.77552C80.2071 7.39059 79.6204 7.81694 78.9417 7.91558L75.6083 8.40004L78.0208 10.7521C78.5117 11.2308 78.7357 11.9204 78.6197 12.5962L78.0502 15.915L81.0305 14.3481C81.6374 14.029 82.3625 14.029 82.9695 14.3481L85.9498 15.915L85.3802 12.5962C85.2643 11.9204 85.4883 11.2308 85.9792 10.7521L88.3917 8.40004L85.0583 7.91558ZM91.3535 6.72526C91.7667 6.78665 92.0548 7.1692 91.9911 7.58244C91.9674 7.74774 91.8895 7.89887 91.7714 8.01458L87.4336 12.2438L88.4584 18.2158C88.5292 18.6267 88.253 19.0163 87.8421 19.0872C87.6791 19.1155 87.5091 19.0895 87.3627 19.0116L82 16.1921L76.6373 19.0116C76.5126 19.0774 76.372 19.107 76.2313 19.097C76.0907 19.0869 75.9557 19.0377 75.8416 18.9549C75.7276 18.872 75.639 18.7589 75.586 18.6282C75.5329 18.4976 75.5175 18.3547 75.5416 18.2158L76.5664 12.2438L72.2285 8.01458C72.0849 7.87456 72.0027 7.68324 72.0001 7.48266C71.9974 7.28208 72.0745 7.08864 72.2144 6.94487C72.3301 6.8268 72.4812 6.74887 72.6465 6.72526L78.6421 5.8539L81.3223 0.420337C81.5088 0.0472366 81.9622 -0.106254 82.3353 0.0779347C82.4841 0.151138 82.6045 0.271569 82.6777 0.420337L85.3579 5.8539L91.3535 6.72526Z" fill="#006FFD"/>
</mask>
<g mask="url(#mask3_125_147)">
<rect x="72" width="20" height="20" fill="#D4D6DD"/>
</g>
<mask id="mask4_125_147" style="mask-type:alpha" maskUnits="userSpaceOnUse" x="96" y="0" width="20" height="20">
<path fill-rule="evenodd" clip-rule="evenodd" d="M109.058 7.91558C108.38 7.81694 107.793 7.39059 107.489 6.77552L106 3.75582L104.51 6.77552C104.207 7.39059 103.62 7.81694 102.942 7.91558L99.6083 8.40004L102.021 10.7521C102.512 11.2308 102.736 11.9204 102.62 12.5962L102.05 15.915L105.03 14.3481C105.637 14.029 106.363 14.029 106.969 14.3481L109.95 15.915L109.38 12.5962C109.264 11.9204 109.488 11.2308 109.979 10.7521L112.392 8.40004L109.058 7.91558ZM115.353 6.72526C115.767 6.78665 116.055 7.1692 115.991 7.58244C115.967 7.74774 115.89 7.89887 115.771 8.01458L111.434 12.2438L112.458 18.2158C112.529 18.6267 112.253 19.0163 111.842 19.0872C111.679 19.1155 111.509 19.0895 111.363 19.0116L106 16.1921L100.637 19.0116C100.513 19.0774 100.372 19.107 100.231 19.097C100.091 19.0869 99.9557 19.0377 99.8416 18.9549C99.7276 18.872 99.639 18.7589 99.586 18.6282C99.5329 18.4976 99.5175 18.3547 99.5416 18.2158L100.566 12.2438L96.2285 8.01458C96.0849 7.87456 96.0027 7.68324 96.0001 7.48266C95.9974 7.28208 96.0745 7.08864 96.2144 6.94487C96.3301 6.8268 96.4812 6.74887 96.6465 6.72526L102.642 5.8539L105.322 0.420337C105.509 0.0472366 105.962 -0.106254 106.335 0.0779347C106.484 0.151138 106.605 0.271569 106.678 0.420337L109.358 5.8539L115.353 6.72526Z" fill="#006FFD"/>
</mask>
<g mask="url(#mask4_125_147)">
<rect x="96" width="20" height="20" fill="#D4D6DD"/>
</g>
</svg>
