<svg width="116" height="20" viewBox="0 0 116 20" fill="none" xmlns="http://www.w3.org/2000/svg">
<g clip-path="url(#clip0_125_165)">
<mask id="mask0_125_165" style="mask-type:alpha" maskUnits="userSpaceOnUse" x="0" y="0" width="20" height="20">
<path d="M19.3537 6.72533L13.358 5.85397L10.6778 0.420341C10.6046 0.271572 10.4842 0.15114 10.3354 0.0779356C9.96232 -0.106255 9.50893 0.0472372 9.32237 0.420341L6.64216 5.85397L0.64652 6.72533C0.48122 6.74895 0.33009 6.82687 0.21438 6.94494C0.0744935 7.08872 -0.00259026 7.28216 6.64643e-05 7.48274C0.00272319 7.68332 0.0849031 7.87464 0.228548 8.01467L4.56648 12.244L3.54162 18.216C3.51759 18.3549 3.53296 18.4978 3.586 18.6284C3.63903 18.7591 3.72761 18.8722 3.84168 18.9551C3.95576 19.0379 4.09076 19.0871 4.23139 19.0972C4.37202 19.1072 4.51264 19.0776 4.63732 19.0118L10.0001 16.1923L15.3629 19.0118C15.5093 19.0897 15.6793 19.1157 15.8423 19.0874C16.2531 19.0165 16.5294 18.6269 16.4586 18.216L15.4337 12.244L19.7717 8.01467C19.8897 7.89896 19.9677 7.74783 19.9913 7.58253C20.055 7.16928 19.7669 6.78673 19.3537 6.72533Z" fill="#006FFD"/>
</mask>
<g mask="url(#mask0_125_165)">
<rect width="20" height="20" fill="#1187CF"/>
</g>
</g>
<g clip-path="url(#clip1_125_165)">
<mask id="mask1_125_165" style="mask-type:alpha" maskUnits="userSpaceOnUse" x="24" y="0" width="20" height="20">
<path d="M43.3537 6.72533L37.358 5.85397L34.6778 0.420341C34.6046 0.271572 34.4842 0.15114 34.3354 0.0779356C33.9623 -0.106255 33.5089 0.0472372 33.3224 0.420341L30.6422 5.85397L24.6465 6.72533C24.4812 6.74895 24.3301 6.82687 24.2144 6.94494C24.0745 7.08872 23.9974 7.28216 24.0001 7.48274C24.0027 7.68332 24.0849 7.87464 24.2285 8.01467L28.5665 12.244L27.5416 18.216C27.5176 18.3549 27.533 18.4978 27.586 18.6284C27.639 18.7591 27.7276 18.8722 27.8417 18.9551C27.9558 19.0379 28.0908 19.0871 28.2314 19.0972C28.372 19.1072 28.5126 19.0776 28.6373 19.0118L34.0001 16.1923L39.3629 19.0118C39.5093 19.0897 39.6793 19.1157 39.8423 19.0874C40.2531 19.0165 40.5294 18.6269 40.4586 18.216L39.4337 12.244L43.7717 8.01467C43.8897 7.89896 43.9677 7.74783 43.9913 7.58253C44.055 7.16928 43.7669 6.78673 43.3537 6.72533Z" fill="#006FFD"/>
</mask>
<g mask="url(#mask1_125_165)">
<rect x="24" width="20" height="20" fill="#1187CF"/>
</g>
</g>
<g clip-path="url(#clip2_125_165)">
<mask id="mask2_125_165" style="mask-type:alpha" maskUnits="userSpaceOnUse" x="48" y="0" width="20" height="20">
<path d="M67.3537 6.72533L61.358 5.85397L58.6778 0.420341C58.6046 0.271572 58.4842 0.15114 58.3354 0.0779356C57.9623 -0.106255 57.5089 0.0472372 57.3224 0.420341L54.6422 5.85397L48.6465 6.72533C48.4812 6.74895 48.3301 6.82687 48.2144 6.94494C48.0745 7.08872 47.9974 7.28216 48.0001 7.48274C48.0027 7.68332 48.0849 7.87464 48.2285 8.01467L52.5665 12.244L51.5416 18.216C51.5176 18.3549 51.533 18.4978 51.586 18.6284C51.639 18.7591 51.7276 18.8722 51.8417 18.9551C51.9558 19.0379 52.0908 19.0871 52.2314 19.0972C52.372 19.1072 52.5126 19.0776 52.6373 19.0118L58.0001 16.1923L63.3629 19.0118C63.5093 19.0897 63.6793 19.1157 63.8423 19.0874C64.2531 19.0165 64.5294 18.6269 64.4586 18.216L63.4337 12.244L67.7717 8.01467C67.8897 7.89896 67.9677 7.74783 67.9913 7.58253C68.055 7.16928 67.7669 6.78673 67.3537 6.72533Z" fill="#006FFD"/>
</mask>
<g mask="url(#mask2_125_165)">
<rect x="48" width="20" height="20" fill="#1187CF"/>
</g>
</g>
<mask id="mask3_125_165" style="mask-type:alpha" maskUnits="userSpaceOnUse" x="72" y="0" width="20" height="20">
<path fill-rule="evenodd" clip-rule="evenodd" d="M85.0583 7.91558C84.3796 7.81694 83.7929 7.39059 83.4895 6.77552L82 3.75582L80.5105 6.77552C80.2071 7.39059 79.6204 7.81694 78.9417 7.91558L75.6083 8.40004L78.0208 10.7521C78.5117 11.2308 78.7357 11.9204 78.6197 12.5962L78.0502 15.915L81.0305 14.3481C81.6374 14.029 82.3625 14.029 82.9695 14.3481L85.9498 15.915L85.3802 12.5962C85.2643 11.9204 85.4883 11.2308 85.9792 10.7521L88.3917 8.40004L85.0583 7.91558ZM91.3535 6.72526C91.7667 6.78665 92.0548 7.1692 91.9911 7.58244C91.9674 7.74774 91.8895 7.89887 91.7714 8.01458L87.4336 12.2438L88.4584 18.2158C88.5292 18.6267 88.253 19.0163 87.8421 19.0872C87.6791 19.1155 87.5091 19.0895 87.3627 19.0116L82 16.1921L76.6373 19.0116C76.5126 19.0774 76.372 19.107 76.2313 19.097C76.0907 19.0869 75.9557 19.0377 75.8416 18.9549C75.7276 18.872 75.639 18.7589 75.586 18.6282C75.5329 18.4976 75.5175 18.3547 75.5416 18.2158L76.5664 12.2438L72.2285 8.01458C72.0849 7.87456 72.0027 7.68324 72.0001 7.48266C71.9974 7.28208 72.0745 7.08864 72.2144 6.94487C72.3301 6.8268 72.4812 6.74887 72.6465 6.72526L78.6421 5.8539L81.3223 0.420337C81.5088 0.0472366 81.9622 -0.106254 82.3353 0.0779347C82.4841 0.151138 82.6045 0.271569 82.6777 0.420337L85.3579 5.8539L91.3535 6.72526Z" fill="#006FFD"/>
</mask>
<g mask="url(#mask3_125_165)">
<rect x="72" width="20" height="20" fill="#D4D6DD"/>
</g>
<mask id="mask4_125_165" style="mask-type:alpha" maskUnits="userSpaceOnUse" x="96" y="0" width="20" height="20">
<path fill-rule="evenodd" clip-rule="evenodd" d="M109.058 7.91558C108.38 7.81694 107.793 7.39059 107.489 6.77552L106 3.75582L104.51 6.77552C104.207 7.39059 103.62 7.81694 102.942 7.91558L99.6083 8.40004L102.021 10.7521C102.512 11.2308 102.736 11.9204 102.62 12.5962L102.05 15.915L105.03 14.3481C105.637 14.029 106.363 14.029 106.969 14.3481L109.95 15.915L109.38 12.5962C109.264 11.9204 109.488 11.2308 109.979 10.7521L112.392 8.40004L109.058 7.91558ZM115.353 6.72526C115.767 6.78665 116.055 7.1692 115.991 7.58244C115.967 7.74774 115.89 7.89887 115.771 8.01458L111.434 12.2438L112.458 18.2158C112.529 18.6267 112.253 19.0163 111.842 19.0872C111.679 19.1155 111.509 19.0895 111.363 19.0116L106 16.1921L100.637 19.0116C100.513 19.0774 100.372 19.107 100.231 19.097C100.091 19.0869 99.9557 19.0377 99.8416 18.9549C99.7276 18.872 99.639 18.7589 99.586 18.6282C99.5329 18.4976 99.5175 18.3547 99.5416 18.2158L100.566 12.2438L96.2285 8.01458C96.0849 7.87456 96.0027 7.68324 96.0001 7.48266C95.9974 7.28208 96.0745 7.08864 96.2144 6.94487C96.3301 6.8268 96.4812 6.74887 96.6465 6.72526L102.642 5.8539L105.322 0.420337C105.509 0.0472366 105.962 -0.106254 106.335 0.0779347C106.484 0.151138 106.605 0.271569 106.678 0.420337L109.358 5.8539L115.353 6.72526Z" fill="#006FFD"/>
</mask>
<g mask="url(#mask4_125_165)">
<rect x="96" width="20" height="20" fill="#D4D6DD"/>
</g>
<defs>
<clipPath id="clip0_125_165">
<rect width="20" height="20" fill="white"/>
</clipPath>
<clipPath id="clip1_125_165">
<rect width="20" height="20" fill="white" transform="translate(24)"/>
</clipPath>
<clipPath id="clip2_125_165">
<rect width="20" height="20" fill="white" transform="translate(48)"/>
</clipPath>
</defs>
</svg>
