<svg width="116" height="20" viewBox="0 0 116 20" fill="none" xmlns="http://www.w3.org/2000/svg">
<g clip-path="url(#clip0_125_177)">
<mask id="mask0_125_177" style="mask-type:alpha" maskUnits="userSpaceOnUse" x="0" y="0" width="20" height="20">
<path d="M19.3537 6.72533L13.358 5.85397L10.6778 0.420341C10.6046 0.271572 10.4842 0.15114 10.3354 0.0779356C9.96232 -0.106255 9.50893 0.0472372 9.32237 0.420341L6.64216 5.85397L0.64652 6.72533C0.48122 6.74895 0.33009 6.82687 0.21438 6.94494C0.0744935 7.08872 -0.00259026 7.28216 6.64643e-05 7.48274C0.00272319 7.68332 0.0849031 7.87464 0.228548 8.01467L4.56648 12.244L3.54162 18.216C3.51759 18.3549 3.53296 18.4978 3.586 18.6284C3.63903 18.7591 3.72761 18.8722 3.84168 18.9551C3.95576 19.0379 4.09076 19.0871 4.23139 19.0972C4.37202 19.1072 4.51264 19.0776 4.63732 19.0118L10.0001 16.1923L15.3629 19.0118C15.5093 19.0897 15.6793 19.1157 15.8423 19.0874C16.2531 19.0165 16.5294 18.6269 16.4586 18.216L15.4337 12.244L19.7717 8.01467C19.8897 7.89896 19.9677 7.74783 19.9913 7.58253C20.055 7.16928 19.7669 6.78673 19.3537 6.72533Z" fill="#006FFD"/>
</mask>
<g mask="url(#mask0_125_177)">
<rect width="20" height="20" fill="#1187CF"/>
</g>
</g>
<g clip-path="url(#clip1_125_177)">
<mask id="mask1_125_177" style="mask-type:alpha" maskUnits="userSpaceOnUse" x="24" y="0" width="20" height="20">
<path d="M43.3537 6.72533L37.358 5.85397L34.6778 0.420341C34.6046 0.271572 34.4842 0.15114 34.3354 0.0779356C33.9623 -0.106255 33.5089 0.0472372 33.3224 0.420341L30.6422 5.85397L24.6465 6.72533C24.4812 6.74895 24.3301 6.82687 24.2144 6.94494C24.0745 7.08872 23.9974 7.28216 24.0001 7.48274C24.0027 7.68332 24.0849 7.87464 24.2285 8.01467L28.5665 12.244L27.5416 18.216C27.5176 18.3549 27.533 18.4978 27.586 18.6284C27.639 18.7591 27.7276 18.8722 27.8417 18.9551C27.9558 19.0379 28.0908 19.0871 28.2314 19.0972C28.372 19.1072 28.5126 19.0776 28.6373 19.0118L34.0001 16.1923L39.3629 19.0118C39.5093 19.0897 39.6793 19.1157 39.8423 19.0874C40.2531 19.0165 40.5294 18.6269 40.4586 18.216L39.4337 12.244L43.7717 8.01467C43.8897 7.89896 43.9677 7.74783 43.9913 7.58253C44.055 7.16928 43.7669 6.78673 43.3537 6.72533Z" fill="#006FFD"/>
</mask>
<g mask="url(#mask1_125_177)">
<rect x="24" width="20" height="20" fill="#1187CF"/>
</g>
</g>
<g clip-path="url(#clip2_125_177)">
<mask id="mask2_125_177" style="mask-type:alpha" maskUnits="userSpaceOnUse" x="48" y="0" width="20" height="20">
<path d="M67.3537 6.72533L61.358 5.85397L58.6778 0.420341C58.6046 0.271572 58.4842 0.15114 58.3354 0.0779356C57.9623 -0.106255 57.5089 0.0472372 57.3224 0.420341L54.6422 5.85397L48.6465 6.72533C48.4812 6.74895 48.3301 6.82687 48.2144 6.94494C48.0745 7.08872 47.9974 7.28216 48.0001 7.48274C48.0027 7.68332 48.0849 7.87464 48.2285 8.01467L52.5665 12.244L51.5416 18.216C51.5176 18.3549 51.533 18.4978 51.586 18.6284C51.639 18.7591 51.7276 18.8722 51.8417 18.9551C51.9558 19.0379 52.0908 19.0871 52.2314 19.0972C52.372 19.1072 52.5126 19.0776 52.6373 19.0118L58.0001 16.1923L63.3629 19.0118C63.5093 19.0897 63.6793 19.1157 63.8423 19.0874C64.2531 19.0165 64.5294 18.6269 64.4586 18.216L63.4337 12.244L67.7717 8.01467C67.8897 7.89896 67.9677 7.74783 67.9913 7.58253C68.055 7.16928 67.7669 6.78673 67.3537 6.72533Z" fill="#006FFD"/>
</mask>
<g mask="url(#mask2_125_177)">
<rect x="48" width="20" height="20" fill="#1187CF"/>
</g>
</g>
<g clip-path="url(#clip3_125_177)">
<mask id="mask3_125_177" style="mask-type:alpha" maskUnits="userSpaceOnUse" x="72" y="0" width="20" height="20">
<path d="M91.3537 6.72533L85.358 5.85397L82.6778 0.420341C82.6046 0.271572 82.4842 0.15114 82.3354 0.0779356C81.9623 -0.106255 81.5089 0.0472372 81.3224 0.420341L78.6422 5.85397L72.6465 6.72533C72.4812 6.74895 72.3301 6.82687 72.2144 6.94494C72.0745 7.08872 71.9974 7.28216 72.0001 7.48274C72.0027 7.68332 72.0849 7.87464 72.2285 8.01467L76.5665 12.244L75.5416 18.216C75.5176 18.3549 75.533 18.4978 75.586 18.6284C75.639 18.7591 75.7276 18.8722 75.8417 18.9551C75.9558 19.0379 76.0908 19.0871 76.2314 19.0972C76.372 19.1072 76.5126 19.0776 76.6373 19.0118L82.0001 16.1923L87.3629 19.0118C87.5093 19.0897 87.6793 19.1157 87.8423 19.0874C88.2531 19.0165 88.5294 18.6269 88.4586 18.216L87.4337 12.244L91.7717 8.01467C91.8897 7.89896 91.9677 7.74783 91.9913 7.58253C92.055 7.16928 91.7669 6.78673 91.3537 6.72533Z" fill="#006FFD"/>
</mask>
<g mask="url(#mask3_125_177)">
<rect x="72" width="20" height="20" fill="#1187CF"/>
</g>
</g>
<g clip-path="url(#clip4_125_177)">
<mask id="mask4_125_177" style="mask-type:alpha" maskUnits="userSpaceOnUse" x="96" y="0" width="20" height="20">
<path d="M115.354 6.72533L109.358 5.85397L106.678 0.420341C106.605 0.271572 106.484 0.15114 106.335 0.0779356C105.962 -0.106255 105.509 0.0472372 105.322 0.420341L102.642 5.85397L96.6465 6.72533C96.4812 6.74895 96.3301 6.82687 96.2144 6.94494C96.0745 7.08872 95.9974 7.28216 96.0001 7.48274C96.0027 7.68332 96.0849 7.87464 96.2285 8.01467L100.566 12.244L99.5416 18.216C99.5176 18.3549 99.533 18.4978 99.586 18.6284C99.639 18.7591 99.7276 18.8722 99.8417 18.9551C99.9558 19.0379 100.091 19.0871 100.231 19.0972C100.372 19.1072 100.513 19.0776 100.637 19.0118L106 16.1923L111.363 19.0118C111.509 19.0897 111.679 19.1157 111.842 19.0874C112.253 19.0165 112.529 18.6269 112.459 18.216L111.434 12.244L115.772 8.01467C115.89 7.89896 115.968 7.74783 115.991 7.58253C116.055 7.16928 115.767 6.78673 115.354 6.72533Z" fill="#006FFD"/>
</mask>
<g mask="url(#mask4_125_177)">
<rect x="96" width="20" height="20" fill="#1187CF"/>
</g>
</g>
<defs>
<clipPath id="clip0_125_177">
<rect width="20" height="20" fill="white"/>
</clipPath>
<clipPath id="clip1_125_177">
<rect width="20" height="20" fill="white" transform="translate(24)"/>
</clipPath>
<clipPath id="clip2_125_177">
<rect width="20" height="20" fill="white" transform="translate(48)"/>
</clipPath>
<clipPath id="clip3_125_177">
<rect width="20" height="20" fill="white" transform="translate(72)"/>
</clipPath>
<clipPath id="clip4_125_177">
<rect width="20" height="20" fill="white" transform="translate(96)"/>
</clipPath>
</defs>
</svg>
