<svg width="20" height="20" viewBox="0 0 20 20" fill="none" xmlns="http://www.w3.org/2000/svg">
<g clip-path="url(#clip0_544_4469)">
<mask id="mask0_544_4469" style="mask-type:alpha" maskUnits="userSpaceOnUse" x="-1" y="0" width="21" height="20">
<path d="M19.3536 6.72533L13.3579 5.85397L10.6777 0.420341C10.6045 0.271572 10.4841 0.15114 10.3353 0.0779356C9.9622 -0.106255 9.5088 0.0472371 9.32225 0.420341L6.64204 5.85397L0.646398 6.72533C0.481098 6.74895 0.329967 6.82687 0.214258 6.94494C0.0743715 7.08872 -0.00271233 7.28215 -5.5606e-05 7.48274C0.00260112 7.68332 0.084781 7.87464 0.228426 8.01467L4.56635 12.244L3.5415 18.216C3.51746 18.3549 3.53284 18.4978 3.58587 18.6284C3.63891 18.7591 3.72749 18.8722 3.84156 18.9551C3.95563 19.0379 4.09064 19.0871 4.23127 19.0972C4.3719 19.1072 4.51252 19.0776 4.6372 19.0118L9.99998 16.1923L15.3628 19.0118C15.5092 19.0897 15.6792 19.1157 15.8421 19.0874C16.253 19.0165 16.5293 18.6269 16.4585 18.216L15.4336 12.244L19.7715 8.01467C19.8896 7.89896 19.9675 7.74783 19.9911 7.58253C20.0549 7.16928 19.7668 6.78673 19.3536 6.72533V6.72533Z" fill="#006FFD"/>
</mask>
<g mask="url(#mask0_544_4469)">
<rect width="20" height="20" fill="#1187CF"/>
</g>
</g>
<defs>
<clipPath id="clip0_544_4469">
<rect width="20" height="20" fill="white"/>
</clipPath>
</defs>
</svg>
