<svg width="20" height="20" viewBox="0 0 20 20" fill="none" xmlns="http://www.w3.org/2000/svg">
<mask id="mask0_544_4473" style="mask-type:alpha" maskUnits="userSpaceOnUse" x="0" y="0" width="20" height="20">
<path fill-rule="evenodd" clip-rule="evenodd" d="M13.0583 7.91558C12.3796 7.81694 11.7929 7.39059 11.4895 6.77552L9.99999 3.75582L8.51049 6.77552C8.2071 7.39059 7.62042 7.81694 6.94172 7.91558L3.60826 8.40004L6.02077 10.7521C6.51173 11.2308 6.73572 11.9204 6.61974 12.5962L6.05021 15.915L9.03049 14.3481C9.63744 14.029 10.3625 14.029 10.9695 14.3481L13.9498 15.915L13.3802 12.5962C13.2643 11.9204 13.4883 11.2308 13.9792 10.7521L16.3917 8.40004L13.0583 7.91558ZM19.3535 6.72526C19.7667 6.78665 20.0548 7.1692 19.9911 7.58244C19.9674 7.74774 19.8895 7.89887 19.7714 8.01458L15.4336 12.2438L16.4584 18.2158C16.5292 18.6267 16.253 19.0163 15.8421 19.0872C15.6791 19.1155 15.5091 19.0895 15.3627 19.0116L9.99999 16.1921L4.63727 19.0116C4.51259 19.0774 4.37197 19.107 4.23134 19.097C4.09072 19.0869 3.95571 19.0377 3.84164 18.9549C3.72757 18.872 3.63899 18.7589 3.58596 18.6282C3.53292 18.4976 3.51755 18.3547 3.54158 18.2158L4.56643 12.2438L0.228546 8.01458C0.0849021 7.87456 0.00272316 7.68324 6.64636e-05 7.48266C-0.00259023 7.28208 0.0744927 7.08865 0.214378 6.94487C0.330086 6.8268 0.481215 6.74887 0.646513 6.72526L6.64209 5.8539L9.32227 0.420337C9.50882 0.0472366 9.96221 -0.106254 10.3353 0.0779347C10.4841 0.151138 10.6045 0.271569 10.6777 0.420337L13.3579 5.8539L19.3535 6.72526Z" fill="#006FFD"/>
</mask>
<g mask="url(#mask0_544_4473)">
<rect width="20" height="20" fill="#D4D6DD"/>
</g>
</svg>
