<svg width="116" height="111" viewBox="0 0 116 111" fill="none" xmlns="http://www.w3.org/2000/svg">
<circle cx="58.5" cy="53" r="50" fill="#009DFF"/>
<path d="M76.4167 42.9167C76.4167 37.9681 74.41 33.4889 71.1707 30.2496C67.9277 27.0067 63.4486 25 58.5 25C53.5514 25 49.0722 27.0067 45.8293 30.2496C42.59 33.4889 40.5833 37.9681 40.5833 42.9167C40.5833 47.8653 42.59 52.3444 45.8293 55.5838C49.0722 58.8267 53.5514 60.8333 58.5 60.8333C63.4486 60.8333 67.9277 58.8267 71.1707 55.5838C72.837 53.9225 74.1584 51.9481 75.0587 49.7741C75.959 47.6002 76.4205 45.2697 76.4167 42.9167ZM37 78.75C37 82.3333 45.0625 85.9167 58.5 85.9167C71.1062 85.9167 80 82.3333 80 78.75C80 71.5833 71.5648 64.4167 58.5 64.4167C45.0625 64.4167 37 71.5833 37 78.75Z" fill="white"/>
</svg>
